<svg xmlns="http://www.w3.org/2000/svg" width="29.372" height="29.371" viewBox="0 0 29.372 29.371">
  <g id="그룹_418" data-name="그룹 418" transform="translate(-2553.422 14460.075)">
    <g id="그룹_290" data-name="그룹 290" transform="translate(2553.422 -14460.075)">
      <path id="사각형_37" data-name="사각형 37" d="M-.5-.5H28.872V28.872H-.5ZM27.7.675H.675V27.7H27.7Z" transform="translate(0.5 0.5)" fill="none"/>
      <path id="패스_2" data-name="패스 2" d="M27.75,12.841a1.031,1.031,0,1,0,1.031,1.031,1.031,1.031,0,0,0-1.031-1.031" transform="translate(-8.48 -3.77)" fill="#fff"/>
      <path id="패스_3" data-name="패스 3" d="M19.075,14.664a4.41,4.41,0,1,0,4.411,4.411,4.411,4.411,0,0,0-4.411-4.411m0,7.273a2.863,2.863,0,1,1,2.863-2.863,2.863,2.863,0,0,1-2.863,2.863" transform="translate(-4.389 -4.389)" fill="#fff"/>
      <path id="패스_4" data-name="패스 4" d="M25.466,13.387a6.309,6.309,0,0,0-.4-2.085,4.4,4.4,0,0,0-2.512-2.512,6.309,6.309,0,0,0-2.085-.4c-.916-.042-1.208-.052-3.541-.052s-2.625.01-3.541.052a6.3,6.3,0,0,0-2.084.4A4.4,4.4,0,0,0,8.791,11.3a6.309,6.309,0,0,0-.4,2.085C8.35,14.3,8.34,14.6,8.34,16.929s.01,2.625.052,3.541a6.308,6.308,0,0,0,.4,2.084A4.391,4.391,0,0,0,11.3,25.066a6.283,6.283,0,0,0,2.084.4c.916.042,1.208.052,3.541.052s2.625-.01,3.541-.052a6.29,6.29,0,0,0,2.085-.4,4.392,4.392,0,0,0,2.512-2.512,6.308,6.308,0,0,0,.4-2.084c.042-.916.052-1.209.052-3.541s-.01-2.625-.052-3.541M23.92,20.4a4.756,4.756,0,0,1-.3,1.595,2.84,2.84,0,0,1-1.63,1.63,4.752,4.752,0,0,1-1.595.3c-.905.041-1.177.05-3.47.05s-2.565-.009-3.47-.05a4.756,4.756,0,0,1-1.595-.3,2.84,2.84,0,0,1-1.63-1.63,4.756,4.756,0,0,1-.3-1.595c-.041-.906-.05-1.177-.05-3.47s.009-2.565.05-3.47a4.752,4.752,0,0,1,.3-1.595,2.84,2.84,0,0,1,1.63-1.63,4.756,4.756,0,0,1,1.595-.3c.906-.042,1.177-.05,3.47-.05s2.565.009,3.47.05a4.752,4.752,0,0,1,1.595.3,2.84,2.84,0,0,1,1.63,1.63,4.752,4.752,0,0,1,.3,1.595c.042.906.05,1.177.05,3.47s-.009,2.565-.05,3.47" transform="translate(-2.243 -2.243)" fill="#fff"/>
    </g>
  </g>
</svg>
