<svg xmlns="http://www.w3.org/2000/svg" width="29.372" height="29.371" viewBox="0 0 29.372 29.371">
  <g id="그룹_420" data-name="그룹 420" transform="translate(-2626.244 14460.075)">
    <g id="그룹_291" data-name="그룹 291" transform="translate(2626.244 -14460.075)">
      <path id="패스_6" data-name="패스 6" d="M-.5-.5H28.872V28.872H-.5ZM27.7.675H.675V27.7H27.7Z" transform="translate(0.5 0.5)" fill="none"/>
      <path id="패스_5" data-name="패스 5" d="M111.014,14a4.286,4.286,0,0,0-.734-1.915,2.587,2.587,0,0,0-1.852-.817c-2.59-.194-6.472-.194-6.472-.194h-.008s-3.885,0-6.472.195a2.583,2.583,0,0,0-1.854.817A4.29,4.29,0,0,0,92.887,14a30.373,30.373,0,0,0-.185,3.122v1.462a30.4,30.4,0,0,0,.185,3.123,4.287,4.287,0,0,0,.735,1.914,3.058,3.058,0,0,0,2.04.824c1.481.148,6.29.194,6.29.194s3.886-.007,6.476-.2a2.587,2.587,0,0,0,1.852-.818,4.283,4.283,0,0,0,.734-1.914,30.164,30.164,0,0,0,.186-3.122V17.121A30.181,30.181,0,0,0,111.014,14m-5.976,3.659-5,2.7V14.939l2.253,1.227Z" transform="translate(-87.265 -3.17)" fill="#fff"/>
    </g>
  </g>
</svg>
